<svg width="31" height="35" viewBox="0 0 31 35" fill="none" xmlns="http://www.w3.org/2000/svg">
<path d="M27.3038 9.94438L29.656 7.59354C30.2263 7.02479 30.2263 6.10167 29.656 5.53146C29.0858 4.96125 28.1642 4.96125 27.594 5.53146L25.2417 7.88229C22.9463 5.985 20.0865 4.74542 16.9583 4.44938V2.91667H19.875C20.6815 2.91667 21.3333 2.26333 21.3333 1.45833C21.3333 0.653333 20.6815 0 19.875 0H11.125C10.3185 0 9.66667 0.653333 9.66667 1.45833C9.66667 2.26333 10.3185 2.91667 11.125 2.91667H14.0417V4.44938C6.28042 5.18583 0.1875 11.7367 0.1875 19.6875C0.1875 28.1313 7.05625 35 15.5 35C23.9438 35 30.8125 28.1313 30.8125 19.6875C30.8125 15.9892 29.4942 12.5942 27.3038 9.94438ZM16.9583 19.6875C16.9583 20.494 16.305 21.1458 15.5 21.1458C14.695 21.1458 14.0417 20.494 14.0417 19.6875V11.6667C14.0417 10.8602 14.695 10.2083 15.5 10.2083C16.305 10.2083 16.9583 10.8602 16.9583 11.6667V19.6875Z" fill="#2405F2"/>
</svg>
