<svg width="13" height="13" viewBox="0 0 13 13" fill="none" xmlns="http://www.w3.org/2000/svg">
<path d="M12.0954 2.26691C11.9804 1.95525 11.7969 1.67316 11.5585 1.4416C11.327 1.20319 11.0451 1.0197 10.7332 0.904686C10.4803 0.806458 10.1003 0.689537 9.40054 0.657684C8.64351 0.623161 8.41653 0.615723 6.50003 0.615723C4.58334 0.615723 4.35636 0.622971 3.59953 0.657494C2.89972 0.689537 2.51958 0.806458 2.26686 0.904686C1.95501 1.0197 1.67291 1.20319 1.44155 1.4416C1.20313 1.67316 1.01965 1.95506 0.904442 2.26691C0.806213 2.51983 0.689293 2.89996 0.65744 3.59977C0.622917 4.35661 0.615479 4.58358 0.615479 6.50027C0.615479 8.41678 0.622917 8.64375 0.65744 9.40078C0.689293 10.1006 0.806213 10.4805 0.904442 10.7334C1.01965 11.0453 1.20294 11.3272 1.44136 11.5588C1.67291 11.7972 1.95482 11.9807 2.26667 12.0957C2.51958 12.1941 2.89972 12.311 3.59953 12.3429C4.35636 12.3774 4.58315 12.3846 6.49984 12.3846C8.41673 12.3846 8.6437 12.3774 9.40034 12.3429C10.1002 12.311 10.4803 12.1941 10.7332 12.0957C11.3592 11.8542 11.854 11.3594 12.0954 10.7334C12.1937 10.4805 12.3106 10.1006 12.3426 9.40078C12.3771 8.64375 12.3844 8.41678 12.3844 6.50027C12.3844 4.58358 12.3771 4.35661 12.3426 3.59977C12.3108 2.89996 12.1938 2.51983 12.0954 2.26691ZM6.50003 10.1858C4.46432 10.1858 2.81408 8.5358 2.81408 6.50008C2.81408 4.46437 4.46432 2.81432 6.50003 2.81432C8.53555 2.81432 10.1858 4.46437 10.1858 6.50008C10.1858 8.5358 8.53555 10.1858 6.50003 10.1858ZM10.3315 3.52996C9.85582 3.52996 9.47015 3.14429 9.47015 2.6686C9.47015 2.19291 9.85582 1.80724 10.3315 1.80724C10.8072 1.80724 11.1929 2.19291 11.1929 2.6686C11.1927 3.14429 10.8072 3.52996 10.3315 3.52996Z" fill="black"/>
</svg>
